<svg width="40" height="40" viewBox="0 0 40 40" fill="none" xmlns="http://www.w3.org/2000/svg">
<rect width="40" height="40" rx="20" fill="#F2F6F7"/>
<path d="M20 15.4892C16.3763 11.1105 12.5503 14.2217 12.5 17.5756C12.5 22.5685 18.5661 26.6666 20 26.6666C21.4339 26.6666 27.5 22.5685 27.5 17.5756C27.4497 14.2217 23.6236 11.1105 20 15.4892Z" fill="white"/>
<path d="M12.5 17.5756L11.75 17.5643V17.5756H12.5ZM20 15.4892L19.4222 15.9674C19.5647 16.1395 19.7765 16.2392 20 16.2392C20.2235 16.2392 20.4353 16.1395 20.5778 15.9674L20 15.4892ZM27.5 17.5756H28.2501L28.2499 17.5643L27.5 17.5756ZM13.2499 17.5868C13.2713 16.1606 14.1029 14.8283 15.2228 14.3143C15.7667 14.0648 16.3952 13.9972 17.0827 14.2121C17.7794 14.4299 18.5833 14.9536 19.4222 15.9674L20.5778 15.011C19.6049 13.8354 18.5716 13.106 17.5302 12.7805C16.4796 12.452 15.4691 12.5509 14.5972 12.951C12.8856 13.7365 11.779 15.6367 11.7501 17.5643L13.2499 17.5868ZM20 25.9166C19.9662 25.9166 19.822 25.8959 19.5457 25.7849C19.2881 25.6814 18.9694 25.5214 18.6091 25.3052C17.8889 24.8731 17.0421 24.2403 16.2351 23.4557C14.599 21.8651 13.25 19.7751 13.25 17.5756H11.75C11.75 20.369 13.434 22.8245 15.1895 24.5312C16.0782 25.3953 17.0168 26.0991 17.8373 26.5914C18.2473 26.8374 18.6378 27.0366 18.9864 27.1767C19.3163 27.3093 19.6753 27.4166 20 27.4166V25.9166ZM28.2499 17.5643C28.221 15.6367 27.1144 13.7365 25.4028 12.951C24.5309 12.5509 23.5204 12.452 22.4697 12.7805C21.4283 13.106 20.3951 13.8354 19.4222 15.011L20.5778 15.9674C21.4167 14.9536 22.2206 14.4299 22.9173 14.2121C23.6048 13.9972 24.2333 14.0648 24.7772 14.3143C25.8971 14.8283 26.7287 16.1606 26.7501 17.5868L28.2499 17.5643ZM20 27.4166C20.3247 27.4166 20.6837 27.3093 21.0136 27.1767C21.3622 27.0366 21.7527 26.8374 22.1627 26.5914C22.9832 26.0991 23.9217 25.3953 24.8105 24.5312C26.566 22.8245 28.25 20.369 28.25 17.5756H26.75C26.75 19.7751 25.401 21.8651 23.7649 23.4557C22.9579 24.2403 22.1111 24.8731 21.3909 25.3052C21.0306 25.5214 20.7119 25.6814 20.4543 25.7849C20.178 25.8959 20.0338 25.9166 20 25.9166V27.4166Z" fill="#353949"/>
</svg>
